<?xml version="1.0" standalone="no"?>
<!DOCTYPE svg PUBLIC "-//W3C//DTD SVG 20010904//EN"
 "http://www.w3.org/TR/2001/REC-SVG-20010904/DTD/svg10.dtd">
<svg version="1.0" xmlns="http://www.w3.org/2000/svg"
 width="200.000000pt" height="200.000000pt" viewBox="0 0 200.000000 200.000000"
 preserveAspectRatio="xMidYMid meet">

<g transform="translate(0.000000,200.000000) scale(0.100000,-0.100000)"
fill="#000000" stroke="none">
<path d="M75 1138 c-7 -23 -10 -148 -3 -151 4 -1 2 -21 -5 -44 -8 -32 -8 -48
1 -68 11 -24 17 -26 60 -23 l47 3 3 58 c3 52 1 57 -18 57 -17 0 -20 -6 -20
-45 0 -38 -3 -45 -20 -45 -18 0 -20 7 -20 61 0 43 -3 58 -12 53 -8 -5 -9 -2
-3 12 5 10 10 40 13 66 3 42 7 47 30 50 44 5 39 28 -7 28 -24 0 -43 -5 -46
-12z"/>
<path d="M488 1134 c-2 -9 -2 -77 0 -150 3 -109 6 -134 18 -134 11 0 14 18 14
90 0 83 1 90 20 90 19 0 20 -7 20 -90 0 -83 1 -90 20 -90 19 0 20 7 20 93 0
102 -7 117 -52 117 -27 0 -28 2 -28 45 0 32 -4 45 -14 45 -8 0 -16 -7 -18 -16z"/>
<path d="M867 1143 c-4 -3 -7 -38 -7 -77 0 -64 1 -69 14 -50 8 11 16 40 18 65
3 38 6 44 25 42 11 -1 24 4 27 12 4 12 -3 15 -33 15 -21 0 -41 -3 -44 -7z"/>
<path d="M1862 1003 c3 -131 5 -148 21 -151 15 -3 17 6 17 87 0 84 1 91 20 91
11 0 20 7 20 15 0 8 -9 15 -20 15 -17 0 -20 7 -20 45 0 39 -3 45 -20 45 -20 0
-20 -5 -18 -147z"/>
<path d="M155 1110 c-22 -43 -20 -80 5 -80 18 0 20 7 20 55 0 30 -2 55 -5 55
-2 0 -11 -13 -20 -30z"/>
<path d="M942 1105 c-19 -41 -15 -75 8 -75 17 0 20 7 20 50 0 55 -10 64 -28
25z"/>
<path d="M632 1052 c-9 -6 -12 -34 -10 -103 l3 -94 49 0 c31 0 51 5 54 13 2 8
-9 12 -36 12 -38 0 -40 2 -38 28 3 22 9 28 37 32 33 5 34 7 37 54 2 32 -1 52
-10 57 -17 11 -69 11 -86 1z m68 -52 c0 -25 -4 -30 -23 -30 -19 0 -23 5 -21
28 2 34 0 32 24 32 16 0 20 -7 20 -30z"/>
<path d="M772 1048 c-8 -8 -12 -46 -12 -105 0 -86 1 -93 20 -93 19 0 20 7 20
90 0 73 3 90 15 90 8 0 15 7 15 15 0 18 -41 20 -58 3z"/>
<path d="M1002 1048 c-8 -8 -12 -46 -12 -105 0 -86 1 -93 20 -93 19 0 20 7 20
90 0 83 1 90 20 90 11 0 20 7 20 15 0 18 -50 21 -68 3z"/>
<path d="M1102 1052 c-9 -6 -12 -34 -10 -103 l3 -94 49 0 c31 0 51 5 54 13 2
8 -8 12 -32 12 -33 0 -36 2 -36 29 0 26 4 30 33 33 32 3 32 3 32 58 l0 55 -40
3 c-22 1 -46 -2 -53 -6z m68 -52 c0 -23 -4 -30 -20 -30 -16 0 -20 7 -20 30 0
23 4 30 20 30 16 0 20 -7 20 -30z"/>
<path d="M1250 1041 c-14 -26 -13 -74 2 -89 7 -7 25 -12 40 -12 24 0 28 -4 28
-30 0 -23 -4 -30 -20 -30 -11 0 -20 7 -20 15 0 20 -29 19 -36 0 -11 -28 16
-46 65 -43 l46 3 3 43 c4 52 -10 72 -49 72 -26 0 -29 4 -29 30 0 23 4 30 20
30 11 0 20 -7 20 -15 0 -8 9 -15 20 -15 23 0 27 29 8 48 -20 20 -86 15 -98 -7z"/>
<path d="M1411 1046 c-8 -9 -11 -46 -9 -103 l3 -88 46 -3 c49 -3 76 15 65 43
-7 19 -36 20 -36 0 0 -8 -9 -15 -20 -15 -18 0 -20 7 -20 75 0 68 2 75 20 75
11 0 20 -7 20 -15 0 -8 9 -15 20 -15 23 0 27 29 8 48 -17 17 -83 15 -97 -2z"/>
<path d="M1564 1047 c-3 -8 -4 -54 -2 -103 l3 -89 49 0 c31 0 51 5 54 13 2 8
-9 12 -38 12 -39 0 -41 1 -38 28 2 22 9 28 38 32 34 5 35 6 38 54 2 32 -1 52
-10 57 -21 14 -88 10 -94 -4z m76 -47 c0 -25 -4 -30 -25 -30 -20 0 -25 5 -25
23 0 28 7 37 32 37 13 0 18 -8 18 -30z"/>
<path d="M1722 1048 c-8 -8 -12 -46 -12 -105 0 -86 1 -93 20 -93 19 0 20 7 20
90 0 83 1 90 20 90 19 0 20 -7 20 -90 0 -83 1 -90 20 -90 19 0 20 7 20 93 0
59 -4 97 -12 105 -16 16 -80 16 -96 0z"/>
<path d="M214 1036 c-3 -7 -4 -42 -2 -77 3 -64 3 -64 35 -67 21 -2 34 -10 38
-23 4 -10 13 -19 21 -19 11 0 14 20 14 100 0 82 -3 100 -15 100 -11 0 -15 -13
-16 -47 -1 -27 -2 -57 -3 -68 -1 -13 -9 -21 -23 -23 -22 -3 -23 0 -23 67 0 42
-4 71 -10 71 -6 0 -13 -6 -16 -14z"/>
<path d="M363 1043 c-19 -7 -18 -193 1 -193 7 0 16 9 19 19 3 14 15 21 38 23
l34 3 3 71 c3 67 1 72 -20 78 -27 7 -58 7 -75 -1z m65 -76 c3 -55 2 -57 -23
-57 -24 0 -25 3 -25 53 0 58 5 69 30 65 11 -2 16 -18 18 -61z"/>
<path d="M868 976 c-22 -44 -23 -99 -4 -115 8 -7 34 -11 58 -9 l43 3 3 58 c3
52 1 57 -18 57 -17 0 -20 -6 -20 -45 0 -38 -3 -45 -20 -45 -17 0 -19 8 -22 67
l-3 66 -17 -37z"/>
</g>
</svg>
